<?xml version="1.0" encoding="UTF-8"?>
<svg xmlns="http://www.w3.org/2000/svg" xmlns:xlink="http://www.w3.org/1999/xlink" version="1.1" id="Layer_1" x="0px" y="0px" width="100%" viewBox="0 0 583 428" enable-background="new 0 0 583 428" xml:space="preserve" style="background: transparent;">

<path fill="#FBFBFB" opacity="1.000000" stroke="none" d=" M345.352112,218.391891   C330.298950,214.518860 315.462738,212.409607 300.504639,216.152481   C295.623352,217.373901 291.044586,219.894135 286.419922,222.021362   C283.077026,223.558975 281.064941,223.297958 279.535980,219.408859   C277.099396,213.210907 275.431854,212.509171 268.927673,213.965683   C258.514099,216.297638 247.840973,217.939056 237.818588,221.427017   C226.124908,225.496597 214.962814,231.127472 203.661331,236.281067   C191.263397,241.934647 178.837936,247.554825 166.669281,253.676208   C155.658325,259.215210 144.980301,265.415588 134.148056,271.310669   C132.005188,272.476837 129.828491,273.580811 126.620987,273.957458   C127.524803,271.695557 128.428619,269.433655 129.776001,266.061707   C117.492355,266.061707 105.624886,266.061707 93.757416,266.061707   C93.661171,265.434296 93.564926,264.806885 93.468681,264.179504   C95.294495,263.541443 97.073997,262.641846 98.953850,262.309052   C109.005295,260.529388 119.177086,259.320099 129.128418,257.108795   C146.265137,253.300797 162.651215,247.353348 177.397278,237.549377   C191.894623,227.910721 205.812149,217.259796 220.935272,208.741821   C236.215454,200.135406 252.698929,193.676590 268.559387,186.076813   C270.881958,184.963928 273.108429,183.055206 274.614532,180.963882   C277.327484,177.196854 280.843353,174.704376 285.108398,176.356079   C297.776093,181.261871 310.143158,177.944809 322.658295,176.082108   C335.168915,174.220093 347.716675,172.591339 360.270996,171.045776   C366.753021,170.247772 373.328278,170.119156 379.759766,169.066833   C381.173615,168.835510 383.124420,165.999176 383.177643,164.310410   C383.484131,154.584778 383.920990,144.790512 383.103363,135.121872   C382.221283,124.692154 379.984924,114.378532 378.403656,104.004471   C378.197906,102.654701 378.375427,101.246521 378.375427,99.865395   C378.776154,99.626480 379.176880,99.387566 379.577606,99.148659   C382.529266,101.839371 385.752625,104.289345 388.386169,107.261871   C400.729401,121.193871 409.116913,137.546097 417.117035,154.189819   C420.867920,161.993317 424.954437,169.863678 430.250519,176.639389   C437.106842,185.411224 447.752899,188.768204 458.009247,192.036835   C471.342621,196.286133 484.865875,200.174255 496.710266,207.831482   C508.682159,215.571152 519.995544,224.266953 524.397888,238.812103   C526.281433,245.035294 523.699707,249.293198 517.297180,249.811829   C505.811066,250.742279 494.267487,250.978287 482.745636,251.448349   C466.673737,252.104065 452.233551,245.492325 437.203827,241.365936   C426.959808,238.553452 416.370209,235.194565 406.427307,242.806076   C399.883667,247.815369 393.201782,252.643875 386.646301,257.638031   C373.500977,267.652527 358.781555,274.589844 343.140991,279.575928   C339.194183,280.834106 334.842590,280.822632 330.677032,281.394653   C330.296692,280.766174 329.916321,280.137726 329.535980,279.509277   C332.090942,277.305420 334.830811,275.280640 337.168640,272.866516   C346.906158,262.811310 356.240021,252.383072 361.529053,239.168579   C362.842499,235.886932 363.188965,232.055588 363.171021,228.480988   C363.163452,226.979630 361.363281,224.829239 359.842621,224.116821   C355.272156,221.975601 350.438141,220.396912 345.352112,218.391891  z"/>
</svg>